<?xml version="1.0" encoding="UTF-8"?>
<svg id="Camada_2" data-name="Camada 2" xmlns="http://www.w3.org/2000/svg" viewBox="0 0 185.41 54.09">
  <defs>
    <style>
      .cls-1 {
        fill: #1d2220;
      }

      .cls-2 {
        fill: #62b08a;
      }
    </style>
  </defs>
  <g id="Camada_1-2" data-name="Camada 1">
    <g>
      <g>
        <rect class="cls-2" x="0" y="0" width="6.73" height="54.09" rx="3.36" ry="3.36"/>
        <rect class="cls-2" x="12.61" y="11.01" width="6.73" height="43.08" rx="3.36" ry="3.36"/>
        <rect class="cls-2" x="24.38" y="6" width="6.73" height="48.09" rx="3.36" ry="3.36"/>
        <rect class="cls-2" x="42.92" y="6.78" width="6.73" height="48.09" rx="3.36" ry="3.36" transform="translate(-6.64 13.76) rotate(-15.79)"/>
      </g>
      <g>
        <path class="cls-1" d="M78.51,25.9h-10.19c.4,1.8,1.85,3.03,3.73,3.03,1.4,0,2.6-.78,3.22-1.96.13-.11.27-.16.48-.16h2.47c.4,0,.64.27.46.67-.99,2.52-3.62,4.29-6.65,4.29-4.16,0-7.16-2.87-7.16-6.87s3-6.89,7.16-6.89,7.14,2.9,7.14,6.92c0,.56-.03.97-.64.97ZM68.48,23.32h7.24c-.54-1.45-1.98-2.47-3.68-2.47s-3,.99-3.57,2.47Z"/>
        <path class="cls-1" d="M96.65,26.59c0,2.95-2.15,4.94-5.12,4.94h-9.12c-.35,0-.56-.21-.56-.59V13.48c0-.38.21-.56.56-.56h8.29c3,0,5.15,1.9,5.15,4.72,0,2.04-1.1,3.57-2.82,4.27,2.17.54,3.62,2.31,3.62,4.7ZM89.91,16.13h-4.35v4.56h4.35c1.34,0,2.31-.99,2.31-2.31s-.97-2.25-2.31-2.25ZM90.53,28.31c1.34,0,2.31-.99,2.31-2.33s-.97-2.36-2.31-2.36h-4.96v4.7h4.96Z"/>
        <path class="cls-1" d="M98.37,24.9c0-4,3-6.89,7.16-6.89s7.14,2.9,7.14,6.89-3,6.87-7.14,6.87-7.16-2.87-7.16-6.87ZM109.07,24.9c0-2.25-1.48-3.86-3.57-3.86s-3.54,1.61-3.54,3.86,1.48,3.84,3.54,3.84,3.57-1.61,3.57-3.84Z"/>
        <path class="cls-1" d="M114.39,24.9c0-4,3-6.89,7.16-6.89s7.14,2.9,7.14,6.89-3,6.87-7.14,6.87-7.16-2.87-7.16-6.87ZM125.09,24.9c0-2.25-1.48-3.86-3.57-3.86s-3.54,1.61-3.54,3.86,1.48,3.84,3.54,3.84,3.57-1.61,3.57-3.84Z"/>
        <path class="cls-1" d="M143.2,30.83c.27.4.11.7-.38.7h-2.82c-.3,0-.54-.11-.7-.4l-4.69-5.95v5.77c0,.38-.21.59-.56.59h-2.36c-.35,0-.56-.21-.56-.59V13.48c0-.38.21-.56.56-.56h2.36c.35,0,.56.19.56.56v10.57l4.69-5.39c.16-.27.38-.38.7-.38h2.76c.48,0,.64.3.38.67l-5.02,5.63,5.07,6.25Z"/>
        <path class="cls-1" d="M66.38,53.85c-.35,0-.56-.21-.56-.59v-17.46c0-.35.21-.56.56-.56h2.58c.38,0,.59.19.59.56v17.46c0,.38-.21.59-.59.59h-2.58Z"/>
        <path class="cls-1" d="M85.49,45.56v7.7c0,.38-.21.59-.59.59h-2.33c-.38,0-.59-.21-.59-.59v-7.19c0-1.77-1.1-2.95-2.74-2.95s-2.82,1.18-2.82,2.95v7.19c0,.38-.21.59-.56.59h-2.36c-.35,0-.56-.21-.56-.59v-12.1c0-.38.21-.56.56-.56h2.36c.35,0,.56.19.56.56v1.45c.86-1.42,2.36-2.28,4.18-2.28,2.87,0,4.88,2.15,4.88,5.23Z"/>
        <path class="cls-1" d="M95.79,40.6c.35,0,.56.19.56.56v1.77c0,.35-.21.56-.56.56h-2.39v9.76c0,.38-.21.59-.59.59h-2.33c-.38,0-.59-.21-.59-.59v-9.76h-1.88c-.38,0-.59-.21-.59-.56v-1.77c0-.38.21-.56.59-.56h1.88v-2.9c0-.35.21-.56.59-.56h2.33c.38,0,.59.21.59.56v2.9h2.39Z"/>
        <path class="cls-1" d="M111.14,48.22h-10.19c.4,1.8,1.85,3.03,3.73,3.03,1.4,0,2.6-.78,3.22-1.96.13-.11.27-.16.48-.16h2.47c.4,0,.64.27.46.67-.99,2.52-3.62,4.29-6.65,4.29-4.16,0-7.16-2.87-7.16-6.87s3-6.89,7.16-6.89,7.14,2.9,7.14,6.92c0,.56-.03.97-.64.97ZM101.1,45.64h7.24c-.54-1.45-1.98-2.47-3.68-2.47s-3,.99-3.57,2.47Z"/>
        <path class="cls-1" d="M122.52,40.79v2.31c0,.35-.19.56-.56.56-2.6.16-4.24,1.56-4.24,3.81v5.79c0,.38-.21.59-.56.59h-2.36c-.35,0-.56-.21-.56-.59v-12.1c0-.38.21-.56.56-.56h2.36c.35,0,.56.19.56.56v2.41c.8-1.9,2.28-3.11,4.21-3.35.4-.05.59.16.59.56Z"/>
        <path class="cls-1" d="M137.14,40.6c.38,0,.59.19.59.56v12.1c0,.38-.21.59-.59.59h-2.33c-.38,0-.59-.21-.59-.59v-1.53c-1.07,1.48-2.74,2.36-4.67,2.36-3.49,0-6.04-2.87-6.04-6.87s2.55-6.89,6.04-6.89c1.93,0,3.6.88,4.67,2.39v-1.56c0-.38.21-.56.59-.56h2.33ZM134.21,47.22c0-2.25-1.48-3.86-3.54-3.86s-3.57,1.61-3.57,3.86,1.5,3.84,3.57,3.84,3.54-1.61,3.54-3.84Z"/>
        <path class="cls-1" d="M148.19,40.6c.35,0,.56.19.56.56v1.77c0,.35-.21.56-.56.56h-2.39v9.76c0,.38-.21.59-.59.59h-2.33c-.38,0-.59-.21-.59-.59v-9.76h-1.88c-.38,0-.59-.21-.59-.56v-1.77c0-.38.21-.56.59-.56h1.88v-2.9c0-.35.21-.56.59-.56h2.33c.38,0,.59.21.59.56v2.9h2.39Z"/>
        <path class="cls-1" d="M150.45,36.92c0-1.15.89-1.96,2.12-1.96s2.15.81,2.15,1.96-.89,1.93-2.15,1.93-2.12-.8-2.12-1.93ZM151.42,53.85c-.38,0-.59-.21-.59-.59v-12.1c0-.35.21-.56.59-.56h2.33c.38,0,.59.21.59.56v12.1c0,.38-.21.59-.59.59h-2.33Z"/>
        <path class="cls-1" d="M169.79,40.6c.4,0,.62.24.48.64l-4.7,12.15c-.11.32-.35.46-.67.46h-3.14c-.35,0-.59-.13-.7-.46l-4.67-12.15c-.13-.4.05-.64.48-.64h2.5c.32,0,.54.13.64.48l3.33,9.31,3.3-9.31c.11-.35.32-.48.64-.48h2.5Z"/>
        <path class="cls-1" d="M171.11,47.22c0-4,3-6.89,7.16-6.89s7.14,2.9,7.14,6.89-3,6.87-7.14,6.87-7.16-2.87-7.16-6.87ZM181.82,47.22c0-2.25-1.48-3.86-3.57-3.86s-3.54,1.61-3.54,3.86,1.48,3.84,3.54,3.84,3.57-1.61,3.57-3.84Z"/>
      </g>
    </g>
  </g>
</svg>